<svg xmlns="http://www.w3.org/2000/svg" width="131" height="131" viewBox="0 0 131 131" fill="none">
<g clip-path="url(#clip0_6_867)">
<path d="M67.5251 130.358C103.346 129.238 131.476 99.2924 130.357 63.4719C129.238 27.6514 99.2917 -0.479394 63.4712 0.640054C27.6507 1.7595 -0.480082 31.7053 0.639365 67.5258C1.75881 103.346 31.7046 131.477 67.5251 130.358Z" fill="white"/>
<path d="M65.5 131C29.3844 131 0 101.616 0 65.5C0 29.3844 29.3844 0 65.5 0C101.616 0 131 29.3844 131 65.5C131 101.616 101.616 131 65.5 131ZM65.5 1.22344C30.0549 1.21909 1.21909 30.0549 1.21909 65.5C1.21909 100.945 30.0549 129.777 65.5 129.777C100.945 129.777 129.781 100.941 129.781 65.5C129.781 30.0593 100.945 1.21909 65.5 1.21909V1.22344Z" fill="#231F20"/>
<path fill-rule="evenodd" clip-rule="evenodd" d="M65.5001 15.2778C93.23 15.2778 115.718 37.7657 115.718 65.4957C115.718 93.2256 93.23 115.713 65.5001 115.713C37.7701 115.713 15.2822 93.2256 15.2822 65.4957C15.2822 37.7657 37.7701 15.2778 65.5001 15.2778Z" fill="white"/>
<path fill-rule="evenodd" clip-rule="evenodd" d="M65.5 16.6493C92.4723 16.6493 114.346 38.5233 114.346 65.4913C114.346 92.4593 92.4723 114.338 65.5 114.338C38.5276 114.338 16.658 92.4637 16.658 65.4913C16.658 38.5189 38.5319 16.6493 65.5 16.6493Z" fill="#231F20"/>
<path fill-rule="evenodd" clip-rule="evenodd" d="M31.1651 30.7603L23.5328 90.487C19.1658 83.1768 16.658 74.6257 16.658 65.4956C16.658 51.9071 22.2092 39.6161 31.1651 30.7646V30.7603Z" fill="#F58220"/>
<path fill-rule="evenodd" clip-rule="evenodd" d="M25.8186 93.9701L45.6027 20.8769C51.6807 18.1601 58.4162 16.6493 65.5 16.6493C69.3271 16.6493 73.0497 17.089 76.6199 17.9206L29.9505 98.9771C28.4658 97.401 27.0856 95.7291 25.8186 93.9658V93.9701Z" fill="#F58220"/>
<path fill-rule="evenodd" clip-rule="evenodd" d="M31.6659 100.719L91.6103 24.212C100.057 29.5673 106.744 37.4392 110.624 46.7739L35.641 104.141C34.2565 103.07 32.9329 101.925 31.6702 100.714L31.6659 100.719Z" fill="#F58220"/>
<path fill-rule="evenodd" clip-rule="evenodd" d="M37.7091 105.66L114.238 62.265C114.307 63.3317 114.346 64.4115 114.346 65.4956C114.346 75.9667 111.046 85.6716 105.434 93.6218L44.6144 109.657C42.198 108.512 39.8861 107.171 37.7091 105.66Z" fill="#F58220"/>
<path fill-rule="evenodd" clip-rule="evenodd" d="M50.8361 112.095L90.8571 107.245C83.4641 111.747 74.7868 114.338 65.5 114.338C60.3885 114.338 55.4643 113.55 50.8361 112.095Z" fill="#F58220"/>
<path d="M65.5 114.956C38.2315 114.956 16.0441 92.7684 16.0441 65.5C16.0441 38.2316 38.2272 16.0485 65.5 16.0485C92.7728 16.0485 114.956 38.2316 114.956 65.5C114.956 92.7684 92.7684 114.956 65.5 114.956ZM65.5 17.2676C38.902 17.2676 17.2675 38.9064 17.2675 65.5C17.2675 92.0936 38.9064 113.737 65.5 113.737C92.0936 113.737 113.737 92.0979 113.737 65.5C113.737 38.9021 92.0979 17.2676 65.5 17.2676Z" fill="#231F20"/>
<path fill-rule="evenodd" clip-rule="evenodd" d="M5.39018 77.0901L5.27698 76.3281L12.1039 75.318L11.6728 72.414L12.3999 72.3051L12.9398 75.9711L5.38582 77.0901H5.39018ZM4.1885 67.5507C4.17979 66.3969 4.55858 65.426 5.32487 64.6379C6.09551 63.8542 7.0403 63.458 8.16796 63.4493C9.28691 63.4406 10.2361 63.8194 11.0198 64.5944C11.8035 65.365 12.1997 66.3098 12.2084 67.4288C12.2171 68.5608 11.8383 69.5186 11.0677 70.3023C10.297 71.086 9.36093 71.4822 8.25939 71.491C7.52794 71.491 6.84438 71.3255 6.21742 70.9728C5.5861 70.6245 5.09411 70.1456 4.73709 69.5317C4.37572 68.9222 4.19721 68.2604 4.1885 67.5463V67.5507ZM4.93737 67.5071C4.93737 68.0731 5.08976 68.6043 5.39018 69.1094C5.6906 69.6144 6.0868 70.0019 6.59185 70.2849C7.09255 70.5636 7.64985 70.7029 8.25939 70.6985C9.16936 70.6898 9.93129 70.372 10.5539 69.7407C11.1721 69.105 11.4769 68.3474 11.4726 67.4592C11.4682 66.8671 11.3245 66.3229 11.0285 65.8178C10.7368 65.3171 10.3406 64.9253 9.83986 64.651C9.33916 64.3723 8.78186 64.233 8.17667 64.2374C7.57148 64.2374 7.02289 64.3897 6.53525 64.6728C6.04761 64.9601 5.66012 65.3563 5.36841 65.8701C5.0767 66.3838 4.93302 66.9281 4.93737 67.5028V67.5071ZM4.42361 61.3594L4.54552 60.5409L10.7585 58.9213L5.30745 55.4947L5.42936 54.6719L12.487 59.0954L12.4609 59.2609L4.41926 61.3594H4.42361ZM5.86475 52.5428L6.96629 48.3065L7.69339 48.498L6.78342 51.9942L9.09534 52.595L9.9966 49.1293L10.7193 49.3166L9.81809 52.7866L12.7178 53.5398L13.619 50.0741L14.3461 50.2657L13.2533 54.4716L5.8604 52.5472L5.86475 52.5428ZM7.64985 46.308L14.7989 48.9944L16.1008 45.5287L15.4085 45.2674L14.3766 48.0104L7.91544 45.5853L7.64549 46.3037L7.64985 46.308ZM9.45671 41.6537L9.83986 40.8569L13.5233 40.4564L11.5161 37.3651L11.8949 36.5684L14.4463 40.4738L17.7422 42.0499L17.4156 42.7291L14.1241 41.153L9.46107 41.6581L9.45671 41.6537Z" fill="#231F20"/>
<path fill-rule="evenodd" clip-rule="evenodd" d="M23.7635 21.5082L24.9304 20.5329C25.6009 19.9713 26.0754 19.623 26.3541 19.4836C26.759 19.2877 27.1726 19.2268 27.5993 19.3051C28.026 19.3835 28.4004 19.6142 28.727 20.0017C29.0535 20.3892 29.2189 20.7985 29.2233 21.2252C29.2276 21.6519 29.0883 22.0611 28.7966 22.4573C28.5876 22.7447 28.1174 23.1888 27.3903 23.7983L26.9723 24.151L29.2538 26.8722L28.6703 27.3598L23.7592 21.5082H23.7635ZM24.8259 21.5866L26.4934 23.5763L27.4948 22.7534C27.8954 22.4182 28.1566 22.1395 28.2829 21.9088C28.4091 21.6823 28.457 21.4385 28.4265 21.186C28.3961 20.9335 28.2959 20.7071 28.1261 20.5024C27.9607 20.3065 27.756 20.1715 27.5122 20.0975C27.2684 20.0235 27.0289 20.0235 26.7982 20.1019C26.5674 20.1759 26.2539 20.3805 25.8577 20.7114L24.8215 21.5779L24.8259 21.5866ZM29.1841 16.9932L33.5641 23.2498L34.1911 22.81L32.1535 19.8973L32.5105 19.6491L36.7904 20.9857L37.5654 20.4415L33.2768 19.1092C33.7992 18.7391 34.1606 18.3864 34.3696 18.0425C34.5742 17.6985 34.6657 17.3459 34.6482 16.9758C34.6265 16.6057 34.4959 16.2487 34.2608 15.9134C33.9734 15.5042 33.6164 15.2429 33.1897 15.1254C32.763 15.0078 32.332 15.0383 31.9009 15.2125C31.6136 15.33 31.1216 15.6304 30.4293 16.1137L29.1841 16.9845V16.9932ZM30.2378 17.1674L31.3393 16.3967C31.766 16.0963 32.1012 15.9178 32.3363 15.8612C32.5714 15.8046 32.8065 15.8264 33.0417 15.9178C33.2768 16.0092 33.4683 16.1616 33.612 16.3706C33.7644 16.5883 33.8428 16.819 33.8515 17.0716C33.8645 17.3241 33.7949 17.5592 33.6512 17.7813C33.5075 17.999 33.2245 18.2558 32.8109 18.5475L31.7311 19.2921L30.2421 17.163L30.2378 17.1674ZM38.4623 11.0371C39.4941 10.5146 40.5304 10.4188 41.5753 10.7497C42.6202 11.085 43.3996 11.7555 43.909 12.7612C44.4184 13.7583 44.5011 14.7771 44.1615 15.8264C43.8219 16.8756 43.1558 17.6506 42.1587 18.1557C41.153 18.6695 40.1254 18.7609 39.0762 18.4213C38.0312 18.086 37.2562 17.4242 36.7599 16.4446C36.429 15.7915 36.2766 15.1036 36.3071 14.3852C36.3376 13.6668 36.5465 13.0094 36.9297 12.4129C37.3128 11.8208 37.8266 11.3593 38.4579 11.0371H38.4623ZM38.8323 11.6858C39.3461 11.4246 39.899 11.307 40.4868 11.3375C41.0746 11.368 41.6058 11.5334 42.0803 11.8425C42.5549 12.1517 42.9294 12.574 43.2037 13.1139C43.4779 13.6581 43.6042 14.2154 43.5781 14.7858C43.5563 15.3561 43.3822 15.883 43.0643 16.3706C42.7465 16.8582 42.3242 17.2327 41.793 17.5026C41.0049 17.9032 40.1864 17.9728 39.3417 17.7029C38.4971 17.4286 37.8745 16.8887 37.4609 16.0789C37.1822 15.5346 37.056 14.9774 37.0821 14.4026C37.1082 13.8323 37.2824 13.2967 37.6002 12.8048C37.918 12.3128 38.3229 11.9383 38.828 11.6815L38.8323 11.6858ZM44.8581 8.4944L48.498 7.31014L48.7331 8.02418L45.8116 8.96898L46.5518 11.2417L49.4689 10.2926L49.6997 11.011L46.7826 11.9601L47.9407 15.5172L47.2179 15.7523L44.8581 8.49005V8.4944ZM50.4964 6.78767L54.7807 5.87771L54.9374 6.61352L51.402 7.36674L51.8984 9.70478L55.4033 8.96027L55.56 9.69172L52.0551 10.4362L52.6777 13.3621L56.1826 12.6175L56.3394 13.3533L52.0856 14.259L50.5008 6.78767H50.4964ZM56.7312 11.7468L57.3277 11.2852C57.885 12.0646 58.4597 12.4173 59.0518 12.3432C59.3044 12.3128 59.5395 12.2257 59.7441 12.0777C59.9531 11.9296 60.1055 11.7511 60.1969 11.5378C60.2927 11.3244 60.3232 11.1067 60.297 10.8803C60.2666 10.6235 60.149 10.3883 59.9444 10.1663C59.6657 9.85717 59.1824 9.5045 58.4989 9.11265C57.8066 8.7121 57.3712 8.41603 57.1884 8.2201C56.8749 7.89792 56.6964 7.52348 56.6441 7.10986C56.6049 6.77897 56.6441 6.46984 56.7704 6.17813C56.8967 5.88642 57.0926 5.64695 57.3582 5.45538C57.6281 5.26381 57.9285 5.14625 58.2638 5.10707C58.6208 5.06353 58.9648 5.10707 59.2957 5.25075C59.6265 5.38572 60.001 5.67308 60.4015 6.10411L59.8442 6.6527C59.5133 6.30875 59.239 6.09105 59.0214 5.99526C58.808 5.89948 58.5816 5.86465 58.3465 5.89513C58.0417 5.92996 57.8023 6.05622 57.6281 6.26956C57.4583 6.47855 57.3886 6.71801 57.4191 6.98795C57.4409 7.1534 57.4931 7.31014 57.5802 7.45382C57.6716 7.60185 57.8153 7.75424 58.02 7.91098C58.1332 7.9937 58.4902 8.2114 59.091 8.551C59.8094 8.95591 60.3101 9.33035 60.6018 9.67866C60.8892 10.027 61.059 10.3927 61.1069 10.7715C61.1765 11.3201 61.0241 11.8251 60.6584 12.2823C60.2883 12.7351 59.8051 13.0007 59.2086 13.0747C58.7471 13.1313 58.316 13.0616 57.9111 12.8614C57.5062 12.6611 57.11 12.291 56.7225 11.7555L56.7312 11.7468ZM62.1779 11.1111L62.8179 10.7149C63.2882 11.5465 63.8237 11.9557 64.4245 11.947C64.6814 11.947 64.9165 11.8817 65.1429 11.7555C65.365 11.6336 65.5348 11.4725 65.648 11.2678C65.7612 11.0632 65.8178 10.8499 65.8134 10.6278C65.8134 10.3709 65.7176 10.1228 65.5391 9.87894C65.2953 9.54369 64.8512 9.14313 64.2112 8.67726C63.5668 8.20704 63.1619 7.86744 63.0052 7.6541C62.7265 7.30143 62.5872 6.91394 62.5785 6.49596C62.5741 6.16071 62.6438 5.85594 62.8005 5.58164C62.9573 5.30735 63.175 5.0853 63.4623 4.92421C63.7497 4.76311 64.0632 4.68039 64.3984 4.67168C64.7598 4.66733 65.0994 4.7457 65.4129 4.91985C65.7307 5.08965 66.066 5.4162 66.423 5.88642L65.8091 6.3697C65.513 5.99526 65.2648 5.74709 65.0602 5.62954C64.8556 5.51198 64.6335 5.45103 64.3984 5.45974C64.0893 5.46409 63.8411 5.56423 63.6452 5.7558C63.4536 5.94302 63.3622 6.17377 63.3665 6.44807C63.3665 6.61352 63.4057 6.77461 63.4754 6.93135C63.5494 7.08374 63.6757 7.25354 63.8629 7.43205C63.963 7.52784 64.2983 7.77601 64.8643 8.17657C65.5348 8.65549 65.9963 9.07782 66.2445 9.45661C66.497 9.8354 66.6276 10.2142 66.632 10.5973C66.6407 11.1503 66.436 11.6336 66.0268 12.0515C65.6131 12.4652 65.1081 12.6785 64.5029 12.6872C64.037 12.6959 63.6191 12.5827 63.2359 12.3389C62.8528 12.0951 62.5001 11.6902 62.1692 11.1111H62.1779ZM68.7088 4.97645L69.4707 5.0287L68.9395 12.648L68.1776 12.5958L68.7088 4.97645ZM75.6184 5.51634C76.7548 5.71662 77.6386 6.26521 78.2743 7.16211C78.9056 8.05466 79.1233 9.06041 78.9274 10.1707C78.7314 11.2722 78.1872 12.1386 77.2859 12.7699C76.3847 13.4056 75.3833 13.6233 74.2861 13.4274C73.1715 13.2271 72.3007 12.6828 71.6651 11.7859C71.0338 10.889 70.8161 9.89635 71.0033 8.80788C71.1295 8.08513 71.4212 7.44511 71.8828 6.89217C72.3399 6.33487 72.9016 5.93866 73.5677 5.69485C74.2339 5.45103 74.9174 5.39443 75.6184 5.51634ZM75.5226 6.2565C74.9653 6.16071 74.4167 6.21296 73.8638 6.41324C73.3152 6.61352 72.858 6.93571 72.4923 7.3798C72.1266 7.81955 71.8915 8.34201 71.7826 8.94285C71.6259 9.8354 71.8 10.6452 72.3138 11.3723C72.8232 12.0951 73.5155 12.5348 74.3906 12.6916C74.974 12.796 75.54 12.7482 76.0843 12.5522C76.6285 12.3563 77.0857 12.0385 77.447 11.5944C77.8128 11.1546 78.0479 10.6322 78.1524 10.0313C78.2569 9.43484 78.2133 8.86883 78.0174 8.33766C77.8258 7.80648 77.5036 7.35368 77.0508 6.97489C76.598 6.5961 76.0886 6.35664 75.5226 6.2565ZM79.7807 14.3156L82.1405 7.04891L82.3016 7.10115L85.3232 14.2285L87.1301 8.66856L87.8485 8.90367L85.4887 16.1703L85.3232 16.1181L82.319 9.06911L80.5339 14.5637L79.7851 14.3199L79.7807 14.3156ZM93.4041 11.5029L93.2386 11.4159L86.5554 16.5839L87.313 16.9714L89.516 15.2734L92.4506 16.7668L92.3765 19.5533L93.1124 19.9277L93.4041 11.5029ZM92.5855 12.9049L92.4854 15.9613L90.1561 14.7727L92.5855 12.9049ZM98.0714 14.2111L98.7245 14.616L95.0673 20.4676L97.5533 22.022L97.1615 22.6446L94.0223 20.6853L98.0714 14.2067V14.2111Z" fill="#231F20"/>
<path fill-rule="evenodd" clip-rule="evenodd" d="M112.57 26.759L113.049 27.3555L109.466 30.2595C109.039 30.6035 108.782 30.8255 108.691 30.9257C108.482 31.1434 108.342 31.3741 108.268 31.6092C108.199 31.8443 108.203 32.1143 108.273 32.4234C108.347 32.7325 108.477 32.9981 108.66 33.2245C108.817 33.4248 109.013 33.5772 109.244 33.6904C109.474 33.8036 109.709 33.8602 109.958 33.8645C110.201 33.8645 110.454 33.8079 110.711 33.6947C110.898 33.612 111.22 33.3813 111.69 33.0025L115.274 30.1028L115.753 30.6949L112.169 33.5946C111.638 34.0256 111.168 34.3217 110.759 34.4784C110.345 34.6439 109.892 34.6657 109.4 34.5481C108.908 34.4349 108.482 34.1563 108.125 33.7122C107.737 33.2332 107.515 32.7282 107.467 32.2014C107.419 31.6745 107.537 31.2043 107.82 30.782C107.99 30.5208 108.382 30.1463 108.982 29.6587L112.566 26.7546L112.57 26.759ZM110.807 37.1648L111.203 37.8484L116.201 34.9617L113.719 42.211L113.806 42.359L120.42 38.5406L120.041 37.8875L114.978 40.809L117.503 33.4901L117.42 33.3464L110.807 37.1648ZM121.434 40.7829L121.757 41.4752L114.834 44.7057L114.512 44.0135L121.434 40.7829ZM122.519 43.2341L116.362 48.8202L116.414 48.9769L124.717 49.6344L124.447 48.8507L118.025 48.3369L122.784 44.0222L122.51 43.2341H122.519ZM125.331 51.8679L126.163 56.1652L125.427 56.3089L124.735 52.7605L122.388 53.2176L123.072 56.7356L122.336 56.8792L121.652 53.3613L118.713 53.9317L119.397 57.4496L118.657 57.5933L117.829 53.3221L125.327 51.8636L125.331 51.8679ZM126.372 58.3465L126.502 59.8617C126.576 60.7063 126.589 61.281 126.55 61.5902C126.485 62.0517 126.298 62.4348 125.98 62.7483C125.666 63.0618 125.257 63.2359 124.761 63.2795C124.347 63.3143 123.977 63.2533 123.646 63.0835C123.315 62.9137 123.054 62.6569 122.858 62.3085C122.667 61.9602 122.54 61.4682 122.484 60.8282L119.188 63.8759L119.105 62.9311L122.405 59.8921L122.371 59.4567L118.831 59.7659L118.766 59.0039L126.376 58.3378L126.372 58.3465ZM125.693 59.1737L123.106 59.4001L123.211 60.7063C123.254 61.2114 123.333 61.5858 123.455 61.8166C123.572 62.0517 123.746 62.2302 123.968 62.3434C124.191 62.4609 124.434 62.5088 124.696 62.4871C124.952 62.4653 125.179 62.3782 125.375 62.2215C125.571 62.0647 125.706 61.8688 125.775 61.6381C125.845 61.4029 125.858 61.0285 125.814 60.506L125.697 59.1694L125.693 59.1737ZM120.599 64.6988L120.973 65.3563C120.124 65.796 119.697 66.3185 119.684 66.9193C119.68 67.1762 119.732 67.4157 119.85 67.6421C119.967 67.8685 120.124 68.0426 120.324 68.1645C120.525 68.2864 120.734 68.3518 120.96 68.3561C121.217 68.3605 121.469 68.2777 121.717 68.1079C122.061 67.8772 122.479 67.4461 122.967 66.8192C123.459 66.1922 123.816 65.8004 124.029 65.648C124.391 65.3867 124.787 65.2561 125.205 65.2648C125.54 65.2692 125.841 65.3519 126.111 65.5174C126.381 65.6828 126.589 65.9092 126.746 66.2009C126.894 66.4926 126.968 66.8105 126.964 67.1501C126.96 67.5114 126.864 67.8467 126.681 68.1558C126.498 68.465 126.158 68.7915 125.68 69.1311L125.218 68.4998C125.601 68.2168 125.858 67.9773 125.984 67.777C126.111 67.5768 126.176 67.3591 126.18 67.1196C126.185 66.8105 126.093 66.5579 125.91 66.3577C125.727 66.1617 125.501 66.0573 125.227 66.0529C125.061 66.0529 124.9 66.079 124.739 66.1487C124.582 66.214 124.413 66.3403 124.225 66.5188C124.13 66.6189 123.864 66.9411 123.446 67.494C122.945 68.1471 122.506 68.5912 122.118 68.8307C121.731 69.0701 121.347 69.1877 120.964 69.179C120.411 69.1703 119.932 68.9526 119.532 68.5216C119.131 68.0949 118.94 67.5811 118.948 66.9759C118.957 66.5101 119.088 66.0921 119.34 65.722C119.597 65.3476 120.015 65.008 120.603 64.6988H120.599ZM126.611 71.0947L126.559 71.8566L118.94 71.3255L118.992 70.5635L126.611 71.0947ZM125.658 73.5547L126.389 73.6853L125.662 77.8084L124.931 77.6778L125.227 76.0015L118.435 74.8042L118.57 74.0379L125.362 75.2353L125.658 73.5547ZM125.51 78.9491L125.283 79.8025L121.739 80.8736L124.282 83.5425L124.056 84.3959L120.829 81.0259L117.303 80.0811L117.499 79.354L121.025 80.2988L125.514 78.9491H125.51Z" fill="#231F20"/>
<path fill-rule="evenodd" clip-rule="evenodd" d="M29.1755 104.119L30.3336 105.107C30.9954 105.673 31.4177 106.087 31.6006 106.344C31.8618 106.71 31.9881 107.106 31.9837 107.541C31.975 107.977 31.8096 108.386 31.4787 108.769C31.1478 109.156 30.7734 109.387 30.351 109.461C29.9331 109.54 29.502 109.461 29.0666 109.244C28.7488 109.082 28.2307 108.695 27.5123 108.077L27.0987 107.724L24.7911 110.423L24.212 109.927L29.1798 104.119H29.1755ZM29.2713 105.181L27.582 107.154L28.5572 108.007C28.9534 108.347 29.2756 108.56 29.5194 108.643C29.7676 108.73 30.0114 108.734 30.2552 108.664C30.4991 108.595 30.708 108.455 30.8778 108.255C31.0433 108.059 31.1434 107.837 31.1783 107.585C31.2087 107.332 31.1696 107.097 31.0564 106.884C30.9432 106.666 30.6906 106.392 30.2988 106.057L29.2713 105.177V105.181ZM33.7253 107.977L31.1783 111.821C30.7516 112.465 30.4947 112.94 30.4076 113.24C30.2639 113.728 30.2944 114.216 30.4991 114.703C30.7037 115.191 31.0607 115.605 31.5788 115.949C32.049 116.262 32.541 116.401 33.0461 116.362C33.5511 116.323 33.9778 116.162 34.3218 115.888C34.6657 115.609 35.0271 115.187 35.4015 114.621L37.9486 110.776L37.3129 110.354L34.7659 114.198C34.435 114.699 34.1912 115.017 34.0388 115.152C33.8298 115.335 33.6077 115.465 33.3726 115.535C33.1375 115.609 32.8893 115.626 32.6368 115.587C32.3843 115.548 32.1535 115.461 31.9402 115.322C31.7007 115.16 31.4917 114.947 31.3307 114.673C31.1696 114.399 31.0825 114.142 31.0825 113.894C31.0825 113.65 31.1434 113.388 31.2784 113.119C31.335 112.997 31.5135 112.705 31.8183 112.248L34.3653 108.403L33.7297 107.981L33.7253 107.977ZM35.9632 118.26L39.4942 111.486L39.6422 111.564L41.4448 119.101L44.1485 113.915L44.8147 114.264L41.2837 121.038L41.1313 120.96L39.3331 113.51L36.6642 118.635L35.9632 118.269V118.26ZM48.2586 115.317L46.713 120.211C46.5258 120.808 46.3647 121.199 46.2297 121.387C46.0947 121.574 45.9249 121.7 45.7159 121.774C45.5069 121.844 45.298 121.848 45.089 121.783C44.9279 121.735 44.7798 121.648 44.6362 121.522C44.4185 121.334 44.1659 121.047 43.8699 120.659L43.3039 121.117C43.5607 121.513 43.8133 121.813 44.0614 122.018C44.3096 122.223 44.5839 122.371 44.8756 122.466C45.2675 122.588 45.6245 122.606 45.9554 122.514C46.2863 122.423 46.5562 122.249 46.7652 121.992C46.9786 121.735 47.2006 121.225 47.4401 120.472L48.9944 115.552L48.263 115.322L48.2586 115.317ZM53.8403 116.928L55.5165 125.192L54.7198 125L54.1407 122.275L50.9406 121.504L49.1903 123.668L48.3631 123.468L53.6618 116.885L53.8403 116.928ZM53.3701 118.483L51.4457 120.868L53.9883 121.478L53.3744 118.483H53.3701ZM58.3379 117.712L59.8313 117.908C60.4321 117.986 60.8849 118.121 61.1853 118.304C61.4901 118.487 61.7165 118.744 61.8645 119.062C62.0126 119.384 62.0648 119.719 62.0169 120.08C61.9734 120.416 61.8471 120.712 61.6468 120.969C61.4465 121.221 61.1723 121.417 60.8327 121.543C61.2071 121.731 61.4944 121.926 61.6817 122.135C61.8732 122.344 62.0082 122.584 62.0909 122.858C62.1737 123.128 62.1998 123.415 62.1606 123.712C62.0822 124.317 61.7905 124.804 61.2898 125.166C60.7891 125.527 60.1665 125.658 59.4176 125.562L57.3365 125.288L58.3379 117.712ZM58.9822 118.552L58.6601 120.977L59.0911 121.034C59.6179 121.104 60.0098 121.104 60.271 121.043C60.5322 120.977 60.7456 120.847 60.9197 120.655C61.0939 120.464 61.194 120.237 61.2289 119.98C61.2724 119.632 61.1897 119.345 60.9763 119.118C60.7586 118.887 60.3885 118.739 59.8574 118.67L58.9822 118.552ZM58.5599 121.739L58.1768 124.643L59.1129 124.77C59.6658 124.844 60.0794 124.839 60.3494 124.77C60.6193 124.696 60.8501 124.552 61.0373 124.343C61.2245 124.134 61.3333 123.894 61.3682 123.629C61.4117 123.294 61.3421 122.984 61.1548 122.706C60.9676 122.427 60.689 122.214 60.3189 122.074C60.0707 121.979 59.6223 121.887 58.9866 121.805L58.5599 121.748V121.739ZM68.7001 117.751L69.5404 117.712C69.2313 118.422 68.9918 119.244 68.8308 120.181C68.6653 121.117 68.6044 122.079 68.6479 123.063C68.6871 123.977 68.8003 124.857 68.9919 125.693C69.1834 126.537 69.4272 127.273 69.7233 127.904L68.9265 127.939C68.6435 127.334 68.4084 126.62 68.2212 125.793C68.034 124.965 67.9208 124.099 67.8816 123.198C67.8381 122.227 67.886 121.273 68.0296 120.346C68.169 119.414 68.3954 118.552 68.7045 117.751H68.7001ZM71.356 117.921L72.1179 117.86L72.7144 125.479L71.9525 125.54L71.356 117.921ZM75.0525 125.231L73.533 117.742L73.6941 117.708L79.833 122.432L78.6706 116.702L79.4064 116.554L80.9259 124.042L80.7561 124.077L74.6693 119.419L75.8188 125.079L75.0438 125.235L75.0525 125.231ZM83.3423 123.346L85.6368 122.536C86.5337 122.218 87.1868 121.844 87.5917 121.404C87.9966 120.964 88.2578 120.416 88.3754 119.758C88.493 119.101 88.4233 118.408 88.1664 117.686C87.8703 116.85 87.4219 116.201 86.8123 115.735C86.2072 115.269 85.5062 115.039 84.7225 115.043C84.1739 115.043 83.3641 115.23 82.2843 115.613L80.7909 116.14L83.3379 123.346H83.3423ZM83.7951 122.418L81.7357 116.593L82.2451 116.414C83.2813 116.049 84.0476 115.853 84.544 115.831C85.2101 115.801 85.7979 115.975 86.3073 116.349C86.8167 116.724 87.1955 117.259 87.4393 117.951C87.6744 118.613 87.718 119.231 87.5656 119.797C87.4175 120.363 87.1041 120.834 86.6251 121.199C86.2812 121.461 85.615 121.765 84.6223 122.118L83.7907 122.414L83.7951 122.418ZM87.9487 113.406L88.6453 113.088L91.8106 120.041L91.114 120.359L87.9487 113.406ZM92.812 111.016L99.7565 115.796L99.0511 116.214L96.7392 114.655L93.9005 116.323L94.1443 119.096L93.4085 119.527L92.6466 111.111L92.8077 111.016H92.812ZM93.5522 112.461L93.8265 115.513L96.0774 114.19L93.5522 112.461ZM102.978 116.188C102.787 115.352 102.491 114.507 102.086 113.663C101.681 112.814 101.193 112 100.619 111.22C100.083 110.493 99.504 109.84 98.8857 109.257C98.2674 108.673 97.671 108.212 97.0962 107.868L96.4519 108.342C97.0527 108.699 97.6666 109.174 98.2936 109.766C98.9205 110.358 99.5083 111.02 100.048 111.756C100.636 112.553 101.124 113.38 101.511 114.246C101.899 115.113 102.164 115.927 102.299 116.693L102.978 116.192V116.188Z" fill="#231F20"/>
<path fill-rule="evenodd" clip-rule="evenodd" d="M17.4722 95.0759C18.6826 95.0759 19.6666 96.0599 19.6666 97.2703C19.6666 98.4807 18.6826 99.4647 17.4722 99.4647C16.2618 99.4647 15.2778 98.4807 15.2778 97.2703C15.2778 96.0599 16.2618 95.0759 17.4722 95.0759Z" fill="#231F20"/>
<path d="M17.4722 99.6301C16.1704 99.6301 15.1124 98.5721 15.1124 97.2703C15.1124 95.9685 16.1704 94.9105 17.4722 94.9105C18.7741 94.9105 19.8277 95.9685 19.8277 97.2703C19.8277 98.5721 18.7697 99.6301 17.4722 99.6301ZM17.4722 95.2371C16.3533 95.2371 15.439 96.147 15.439 97.2703C15.439 98.3936 16.3489 99.3036 17.4722 99.3036C18.5955 99.3036 19.5055 98.3936 19.5055 97.2703C19.5055 96.147 18.5955 95.2371 17.4722 95.2371Z" fill="#231F20"/>
<path fill-rule="evenodd" clip-rule="evenodd" d="M112.957 95.0759C114.168 95.0759 115.152 96.0599 115.152 97.2703C115.152 98.4807 114.168 99.4647 112.957 99.4647C111.747 99.4647 110.763 98.4807 110.763 97.2703C110.763 96.0599 111.747 95.0759 112.957 95.0759Z" fill="#231F20"/>
<path d="M112.957 99.6301C111.656 99.6301 110.598 98.5721 110.598 97.2703C110.598 95.9685 111.656 94.9105 112.957 94.9105C114.259 94.9105 115.317 95.9685 115.317 97.2703C115.317 98.5721 114.259 99.6301 112.957 99.6301ZM112.957 95.2371C111.839 95.2371 110.924 96.147 110.924 97.2703C110.924 98.3936 111.834 99.3036 112.957 99.3036C114.081 99.3036 114.991 98.3936 114.991 97.2703C114.991 96.147 114.081 95.2371 112.957 95.2371Z" fill="#231F20"/>
</g>
<defs fill="#000000">
<clipPath id="clip0_6_867" fill="#000000">
<rect width="131" height="131" fill="white"/>
</clipPath>
</defs>
</svg>